<svg xmlns="http://www.w3.org/2000/svg" viewBox="0 0 512 512"><rect width="512" height="512" rx="110" fill="#0AAEF3"/><path d="M102 124h308a34 34 0 0 1 34 34v196a34 34 0 0 1-34 34H102a34 34 0 0 1-34-34V158a34 34 0 0 1 34-34z" fill="#fff"/><circle cx="166" cy="236" r="58" fill="#0AAEF3"/><path d="M100 342c13-54 43-81 66-81s53 27 66 81" fill="#0AAEF3"/><rect x="264" y="190" width="132" height="24" rx="12" fill="#0E1F53"/><rect x="264" y="238" width="110" height="20" rx="10" fill="#0AAEF3"/><rect x="264" y="282" width="128" height="20" rx="10" fill="#0AAEF3"/></svg>